<svg width="33" height="23" viewBox="0 0 33 23" fill="none" xmlns="http://www.w3.org/2000/svg">
<path d="M25.3982 8L25.0824 7.89029L22.407 3.02629C21.9045 2.11221 21.1553 1.34777 20.2394 0.814718C19.3234 0.281667 18.2753 5.52234e-05 17.2071 4.76124e-09H10.4704C9.23334 -4.89511e-05 8.02761 0.377432 7.0241 1.07895C6.02059 1.78047 5.27021 2.77044 4.87929 3.90857L3.60407 7.61829C2.53571 8.05495 1.62391 8.78751 0.98283 9.72425C0.34175 10.661 -0.000126476 11.7603 3.50986e-08 12.8846V15.4286C3.50986e-08 17.0514 0.997071 18.4457 2.42786 19.0743C2.61314 20.1037 3.15655 21.0405 3.96757 21.7287C4.77859 22.4168 5.80825 22.8147 6.88506 22.8561C7.96187 22.8976 9.0208 22.58 9.88549 21.9563C10.7502 21.3327 11.3684 20.4405 11.6372 19.4286H21.3628C21.6316 20.4405 22.2498 21.3327 23.1145 21.9563C23.9792 22.58 25.0381 22.8976 26.1149 22.8561C27.1917 22.8147 28.2214 22.4168 29.0324 21.7287C29.8434 21.0405 30.3869 20.1037 30.5721 19.0743C31.2957 18.7576 31.9096 18.2451 32.3403 17.5985C32.7709 16.9518 33 16.1984 33 15.4286V14.6537C32.9998 13.4741 32.6232 12.3235 31.9218 11.3597C31.2203 10.3959 30.2285 9.66626 29.0824 9.27086L25.5231 8.04343V8H25.3982ZM10.4704 2.28571H12.9643V8H5.9565L7.11386 4.63086C7.34851 3.94768 7.79903 3.35349 8.40151 2.93255C9.00399 2.51161 9.72785 2.2853 10.4704 2.28571ZM15.3214 2.28571H17.2071C17.8481 2.28549 18.4771 2.45424 19.0268 2.77392C19.5766 3.09359 20.0263 3.55216 20.328 4.10057L22.473 8H15.3214V2.28571ZM24.9928 10.2857L28.2928 11.424C28.9804 11.6613 29.5753 12.0991 29.9961 12.6774C30.4169 13.2557 30.6428 13.946 30.6429 14.6537V15.4286C30.6429 15.8286 30.5014 16.1966 30.2657 16.4891C29.8796 15.6103 29.2193 14.8709 28.3776 14.3747C27.5358 13.8785 26.555 13.6504 25.5727 13.7226C24.5904 13.7947 23.6561 14.1634 22.9011 14.7768C22.146 15.3903 21.608 16.2177 21.3628 17.1429H11.6372C11.392 16.2177 10.854 15.3903 10.0989 14.7768C9.34387 14.1634 8.40958 13.7947 7.42731 13.7226C6.44505 13.6504 5.46416 13.8785 4.62242 14.3747C3.78068 14.8709 3.12039 15.6103 2.73429 16.4891C2.48897 16.1869 2.35608 15.8132 2.35714 15.4286V12.8846C2.35714 11.856 2.82857 10.9189 3.58286 10.2857H24.9928ZM4.71429 18.2857C4.71429 17.6795 4.96263 17.0981 5.40468 16.6695C5.84673 16.2408 6.44628 16 7.07143 16C7.69658 16 8.29613 16.2408 8.73818 16.6695C9.18023 17.0981 9.42857 17.6795 9.42857 18.2857C9.42857 18.8919 9.18023 19.4733 8.73818 19.902C8.29613 20.3306 7.69658 20.5714 7.07143 20.5714C6.44628 20.5714 5.84673 20.3306 5.40468 19.902C4.96263 19.4733 4.71429 18.8919 4.71429 18.2857ZM25.9286 16C26.5537 16 27.1533 16.2408 27.5953 16.6695C28.0374 17.0981 28.2857 17.6795 28.2857 18.2857C28.2857 18.8919 28.0374 19.4733 27.5953 19.902C27.1533 20.3306 26.5537 20.5714 25.9286 20.5714C25.3034 20.5714 24.7039 20.3306 24.2618 19.902C23.8198 19.4733 23.5714 18.8919 23.5714 18.2857C23.5714 17.6795 23.8198 17.0981 24.2618 16.6695C24.7039 16.2408 25.3034 16 25.9286 16Z" fill="white"/>
</svg>
