<svg width="30" height="27" viewBox="0 0 30 27" fill="none" xmlns="http://www.w3.org/2000/svg">
<path d="M19.3133 3.7099C19.6183 3.14853 20.2132 2.76705 20.8964 2.76705H22.7869C23.7805 2.76705 24.5873 3.57385 24.5873 4.56745V8.00843L27.2233 10.1568C27.5807 10.4479 27.8334 10.7911 27.9478 11.1827C28.0631 11.5773 28.0091 11.9223 27.9234 12.1632L27.9233 12.1635C27.8378 12.4036 27.6622 12.7049 27.3242 12.9379C26.9887 13.1692 26.5766 13.2756 26.1166 13.2756H25.678V23.5419C25.678 24.8959 24.5802 26.0005 23.2232 26.0005H18.7513C17.4117 26.0005 16.2601 24.9055 16.2601 23.5419V19.1655H13.753V23.5419C13.753 24.8855 12.7085 26.0005 11.3345 26.0005H6.78992C5.43297 26.0005 4.33509 24.8961 4.33509 23.5419V13.2756H3.89656C3.43655 13.2756 3.02442 13.1692 2.68891 12.9379C2.35094 12.7049 2.1753 12.4036 2.08977 12.1632L19.3133 3.7099ZM19.3133 3.7099L16.7139 1.5914L16.7138 1.59129C16.2302 1.19731 15.6192 0.999453 15.004 0.999453C14.3909 0.999453 13.7816 1.19621 13.2992 1.58934L13.2991 1.58944L2.78972 10.1568C2.78966 10.1568 2.7896 10.1569 2.78954 10.1569C2.43234 10.448 2.17968 10.7912 2.0653 11.1827C1.95001 11.5772 2.00406 11.9223 2.08974 12.1631L19.3133 3.7099Z" stroke="white" stroke-width="2.00109"/>
</svg>
