<svg width="26" height="28" viewBox="0 0 26 28" fill="none" xmlns="http://www.w3.org/2000/svg">
<path d="M19.7403 15.25C19.05 15.25 18.4903 15.8096 18.4903 16.5C18.4903 17.1904 19.05 17.75 19.7403 17.75V15.25ZM20.195 16.5L20.1953 15.25H20.195V16.5ZM24.039 19.6755L22.8 19.841L22.8 19.8413L24.039 19.6755ZM24.544 23.4503L25.783 23.2848L25.783 23.2846L24.544 23.4503ZM21.9801 26.1667L21.9803 24.9167H21.9801V26.1667ZM4.5839 26.1667V24.9167H4.58364L4.5839 26.1667ZM2.01994 23.4503L3.25893 23.6158L3.25895 23.6157L2.01994 23.4503ZM2.52369 19.6755L1.28469 19.51L1.28467 19.5102L2.52369 19.6755ZM6.37027 16.5L6.36982 17.75H6.37027V16.5ZM6.82365 17.75C7.514 17.75 8.07365 17.1904 8.07365 16.5C8.07365 15.8096 7.514 15.25 6.82365 15.25V17.75ZM18.4903 8.04167C18.4903 10.6108 16.2383 12.8333 13.282 12.8333V15.3333C17.4593 15.3333 20.9903 12.146 20.9903 8.04167H18.4903ZM13.282 12.8333C10.3257 12.8333 8.07365 10.6108 8.07365 8.04167H5.57365C5.57365 12.146 9.10462 15.3333 13.282 15.3333V12.8333ZM8.07365 8.04167C8.07365 5.47252 10.3257 3.25 13.282 3.25V0.75C9.10462 0.75 5.57365 3.93737 5.57365 8.04167H8.07365ZM13.282 3.25C16.2383 3.25 18.4903 5.47252 18.4903 8.04167H20.9903C20.9903 3.93737 17.4593 0.75 13.282 0.75V3.25ZM19.7403 17.75H20.195V15.25H19.7403V17.75ZM20.1947 17.75C20.8575 17.7502 21.4857 17.9774 21.9627 18.3715L23.5549 16.4441C22.6163 15.6687 21.4211 15.2503 20.1953 15.25L20.1947 17.75ZM21.9627 18.3715C22.4378 18.764 22.7263 19.2897 22.8 19.841L25.278 19.51C25.1174 18.3081 24.4955 17.2211 23.5549 16.4441L21.9627 18.3715ZM22.8 19.8413L23.3051 23.6161L25.783 23.2846L25.2779 19.5097L22.8 19.8413ZM23.305 23.6158C23.3253 23.7676 23.3111 23.9223 23.2619 24.0712L25.636 24.8549C25.803 24.3489 25.8536 23.8132 25.783 23.2848L23.305 23.6158ZM23.2619 24.0712C23.2127 24.2205 23.128 24.3645 23.0081 24.4916L24.8261 26.2076C25.1911 25.8209 25.469 25.3605 25.636 24.8549L23.2619 24.0712ZM23.0081 24.4916C22.8879 24.6189 22.735 24.7261 22.5567 24.8013L23.5284 27.1048C24.018 26.8983 24.4613 26.594 24.8261 26.2076L23.0081 24.4916ZM22.5567 24.8013C22.3783 24.8766 22.1815 24.9167 21.9803 24.9167L21.9798 27.4167C22.5113 27.4168 23.0389 27.3113 23.5284 27.1048L22.5567 24.8013ZM21.9801 24.9167H4.5839V27.4167H21.9801V24.9167ZM4.58364 24.9167C4.38242 24.9167 4.18569 24.8766 4.00726 24.8013L3.0356 27.1048C3.52509 27.3113 4.05269 27.4168 4.58415 27.4167L4.58364 24.9167ZM4.00726 24.8013C3.82894 24.7261 3.67609 24.6189 3.55589 24.4916L1.73787 26.2076C2.10263 26.594 2.546 26.8983 3.0356 27.1048L4.00726 24.8013ZM3.55589 24.4916C3.43594 24.3645 3.35127 24.2205 3.30201 24.0712L0.92801 24.8549C1.09493 25.3605 1.37286 25.8209 1.73787 26.2076L3.55589 24.4916ZM3.30201 24.0712C3.25285 23.9223 3.23866 23.7676 3.25893 23.6158L0.780943 23.2848C0.710362 23.8132 0.760993 24.3489 0.92801 24.8549L3.30201 24.0712ZM3.25895 23.6157L3.7627 19.8408L1.28467 19.5102L0.780922 23.285L3.25895 23.6157ZM3.76268 19.841C3.83636 19.2895 4.12512 18.7635 4.60059 18.371L3.00902 16.443C2.06774 17.2201 1.44532 18.3076 1.28469 19.51L3.76268 19.841ZM4.60059 18.371C5.07801 17.9768 5.70664 17.7498 6.36982 17.75L6.37072 15.25C5.14439 15.2496 3.94834 15.6676 3.00902 16.443L4.60059 18.371ZM6.37027 17.75H6.82365V15.25H6.37027V17.75Z" fill="white"/>
</svg>
